<svg xmlns="http://www.w3.org/2000/svg" viewBox="0 0 351.1 258.3">
  <path fill="#76b900" d="M132.4 88.4v-19c1.3-.1 2.7-.2 4-.2 53.6-2.4 90.7 45.8 90.7 45.8s-40.2 52.2-83.4 52.2c-4.1 0-7.8-.6-11.3-1.7v-65.8c18.6 2.2 22.4 11.3 33.5 31.1l24.9-21.1S172 88 136.4 88c-1.4 0-2.7.1-4 .4zm0-53.7v24.2c1.3-.1 2.7-.2 4-.3 72.3-3.2 121 58.7 121 58.7S207 179 147.1 179c-5.1 0-9.9-.5-14.7-1.3v21.5c4.3.6 8.8.9 13.4.9 53 0 91.2-27.2 128.2-55.5 6.1 4.9 31.3 16.9 36.5 22.1-35.6 29.1-118.4 53.4-163.8 53.4-5 0-9.7-.3-14.3-.9v23.3h211V34.7H132.4zm0 126.6v13.3c-40.5-9.6-52.3-52-52.3-52s20.2-22.8 52.3-26.4v14.2h-.1c-18.5-2.2-33 15-33 15s8.6 28.8 33.1 35.9zM7.8 117.4S46.3 66.7 132.4 62v-8.4C41.5 57.3 0 117.8 0 117.8s23.3 88 132.4 96.8v-8.8C45.7 197.4 7.8 117.4 7.8 117.4z"/>
</svg>
